<?xml version="1.0" standalone="no"?>
<!DOCTYPE svg PUBLIC "-//W3C//DTD SVG 20010904//EN"
 "http://www.w3.org/TR/2001/REC-SVG-20010904/DTD/svg10.dtd">
<svg version="1.0" xmlns="http://www.w3.org/2000/svg"
 width="400.000000pt" height="400.000000pt" viewBox="0 0 400.000000 400.000000"
 preserveAspectRatio="xMidYMid meet">
<metadata>
Created by potrace 1.11, written by Peter Selinger 2001-2013
</metadata>
<g transform="translate(0.000000,400.000000) scale(0.100000,-0.100000)"
fill="#000000" stroke="none">
<path d="M1045 3753 c-5 -21 -10 -45 -11 -54 -2 -8 -12 -53 -23 -100 -23 -97
-161 -715 -167 -742 -2 -10 -5 -26 -8 -35 -3 -9 -7 -28 -10 -42 -2 -14 -34
-155 -70 -315 -111 -494 -177 -789 -181 -808 -2 -10 -6 -26 -9 -35 -3 -9 -7
-28 -10 -42 -2 -14 -11 -55 -20 -91 -8 -37 -17 -78 -20 -90 -9 -46 -147 -665
-171 -764 -13 -55 -26 -113 -29 -130 -3 -16 -17 -82 -32 -145 -14 -63 -27
-123 -29 -133 -4 -16 29 -17 566 -17 313 0 569 2 569 5 0 2 16 75 35 162 20
87 50 221 66 298 17 77 32 147 34 155 42 184 88 390 91 409 3 12 11 51 19 85
8 33 16 72 19 86 2 14 12 57 20 95 9 39 19 80 21 93 l5 22 765 0 c421 0 765 3
765 8 0 4 21 99 46 212 25 113 48 216 50 229 3 12 11 51 19 85 8 33 16 72 19
86 3 14 7 34 10 45 3 11 8 34 11 51 l7 31 -761 0 c-419 0 -763 2 -766 4 -3 4
115 550 122 558 1 2 356 3 787 2 769 -1 785 -1 791 18 7 22 6 19 39 176 13 66
32 149 40 185 9 36 34 151 56 255 23 105 43 198 46 208 5 16 -64 17 -1344 17
l-1350 0 -7 -37z"/>
</g>
</svg>
